<?xml version="1.0" encoding="utf-8"?>
<!-- Generator: Adobe Illustrator 24.2.1, SVG Export Plug-In . SVG Version: 6.00 Build 0)  -->
<svg version="1.1" xmlns="http://www.w3.org/2000/svg" xmlns:xlink="http://www.w3.org/1999/xlink" x="0px" y="0px"
	 viewBox="0 0 100 900" style="enable-background:new 0 0 100 900;" xml:space="preserve">
<style type="text/css">
	.st0{fill:#FFFFFF;stroke:#000000;stroke-linejoin:round;stroke-miterlimit:10;}
</style>
<g id="saturno_x5F_v">
	<polygon id="modulo-mando_abierto_1_" class="st0" points="55,117 45,117 34,132 66,132 	"/>
	<g id="astronauta-interno-3_1_">
		<path d="M54.1,126.1c0-0.2-0.1-0.5-0.4-0.7c-0.3-0.2-0.5-0.3-0.8-0.2c-0.2,0.1-0.4,0.2-0.5,0.3c-0.2,0.2-0.4,0.6,0.1,1.2
			c0.1,0.1,0.2,0.2,0.4,0.3c0.3,0.1,0.5,0.1,0.8-0.2C53.9,126.6,54.1,126.3,54.1,126.1z M53.5,126.6c-0.3,0.3-0.5,0.2-0.9-0.1
			c-0.3-0.3-0.4-0.6-0.1-0.9c0.1-0.1,0.2-0.2,0.4-0.3c0.1,0,0.2,0,0.3,0c0.1,0,0.2,0.1,0.2,0.2c0.2,0.2,0.3,0.4,0.3,0.6
			C53.8,126.3,53.7,126.4,53.5,126.6z"/>
		<path d="M54.2,126.7l-0.5,0.5c0,0,0,0.1,0,0.2c0,0,0.1,0,0.2,0l0.5-0.5c0,0,0-0.1,0-0.2C54.3,126.7,54.3,126.7,54.2,126.7
			L54.2,126.7z"/>
		<path d="M51.9,125.4c0,0,0.1,0,0.2,0c0,0,0,0,0,0l0.5-0.5c0,0,0-0.1,0-0.2s-0.1,0-0.2,0l0,0l-0.5,0.5
			C51.8,125.3,51.8,125.4,51.9,125.4z"/>
		<path d="M53.7,128.4l-0.5-1.1c0.2,0,0.3-0.1,0.5-0.2c0,0,0,0,0,0l0.5-0.5c0.2-0.2,0.3-0.6,0.2-0.9c-0.1-0.4-0.4-0.8-0.7-1
			c-0.8-0.3-1.2,0.1-1.2,0.1l-0.5,0.5c0,0-0.5,0.6,0.1,1.4c0.1,0.2,0.3,0.3,0.5,0.4c0.1,0.1,0.2,0.1,0.4,0.1c0,0,0,0,0,0l0.5,1.1
			c0.1,0.2,0.1,0.4,0,0.6l-0.1,0.2l-0.3,0.3l-0.3-0.4l0.3-0.3c0,0,0-0.1,0-0.1l-0.2-0.6c0-0.1-0.1-0.1-0.1-0.1c0,0,0,0,0,0l-1.2,0.9
			l-0.8,0.4l-0.5-0.5l0.5-0.2c0.1,0,0.1-0.1,0.1-0.1c0,0,0,0,0,0l-0.3-0.2c0,0,0,0-0.1,0l-0.8,0c0,0,0,0-0.1,0l-0.2,0.1L49,128
			l0.1-0.1c0.1-0.1,0.2-0.1,0.3-0.1l0.7,0c0,0,0.1,0,0.1,0l0.9-0.9c0,0,0-0.1,0-0.2c0,0,0,0-0.1,0l-0.7,0c-0.1,0-0.2-0.1-0.3-0.2
			l-0.2-0.4l0.4-0.1l0.1,0.2c0,0,0.1,0.1,0.1,0.1l0.9-0.1c0.1,0,0.1-0.1,0.1-0.1c0-0.1-0.1-0.1-0.1-0.1l-0.8,0.1l-0.2-0.6
			c0.1-0.1,0.1-0.3,0.1-0.5c0-0.1-0.1-0.2-0.2-0.2c0.1-0.2-0.1-0.4-0.2-0.5c-0.4-0.2-0.5,0-0.7,0.5c-0.2,0.3-0.1,0.7,0.1,0.9
			l0.4,0.9c0.1,0.2,0.3,0.3,0.5,0.3l0.4,0l-0.7,0.7l-0.7,0c-0.2,0-0.3,0-0.5,0.1l-0.8,0.5c-0.1-0.1-0.3-0.2-0.5-0.1
			c-0.2,0-0.4,0.1-0.5,0.3c-0.2,0.4,0.7,1,0.8,1.1c0.1,0,0.3,0,0.4-0.1l0,0l1.2-0.8l0.8,0l0.1,0.1l-0.4,0.2c0,0,0,0,0,0l-0.5,0.4
			c-0.1-0.1-0.3-0.2-0.5-0.1c-0.2,0-0.4,0.1-0.5,0.3c-0.2,0.4,0.7,1,0.8,1.1c0.1,0,0.3,0,0.4-0.1c0,0,0,0,0,0l0.9-0.7l0.9-0.4
			c0,0,0,0,0,0l1.1-0.8l0.1,0.4l-0.6,0.6c-0.3-0.1-0.5,0-0.6,0.3c-0.1,0.1,0,0.3,0,0.4c-0.1,0.2,0,0.4,0.2,0.5
			c0.5,0.2,0.9-0.4,0.9-0.5l0.7-0.8c0,0,0,0,0,0l0.1-0.2C53.8,128.9,53.8,128.7,53.7,128.4z M52.3,126.7c-0.5-0.7-0.2-1.1-0.2-1.1
			l0.5-0.5c0,0,0.4-0.4,1-0.1c0.3,0.1,0.5,0.5,0.6,0.8c0.1,0.2,0,0.5-0.2,0.7l-0.5,0.5C53.2,127.3,52.6,127.1,52.3,126.7z
			 M49.6,124.9c0.2-0.5,0.2-0.5,0.4-0.4c0.1,0,0.2,0.2,0.1,0.3c0,0,0,0,0,0c0,0.1,0,0.1,0.1,0.1c0.1,0,0.1,0.1,0.1,0.2
			c0,0.1,0,0.2-0.1,0.3l-0.6,0.1C49.5,125.3,49.4,125.1,49.6,124.9z M50.2,125.6l0.1,0.2l-0.4,0.1l-0.1-0.2L50.2,125.6z M48.3,129.2
			c-0.1,0.1-0.1,0.1-0.2,0.1c-0.2-0.1-0.3-0.2-0.5-0.4c-0.2-0.2-0.3-0.4-0.2-0.4c0.1-0.1,0.2-0.2,0.3-0.2c0.1,0,0.2,0,0.2,0
			c0.1,0.1,0.2,0.2,0.3,0.3C48.5,128.9,48.4,129.1,48.3,129.2z M48.5,128.5c0,0-0.1-0.1-0.1-0.1l0.4-0.2l0.4,0.5l-0.6,0.4
			C48.6,128.8,48.6,128.6,48.5,128.5z M50,129.2l0.4,0.5l-0.5,0.4c0-0.2-0.1-0.3-0.2-0.5c0,0-0.1-0.1-0.1-0.1L50,129.2z M49.5,130.3
			c-0.2-0.1-0.3-0.2-0.5-0.4c-0.2-0.2-0.3-0.4-0.2-0.4c0.1-0.1,0.2-0.2,0.3-0.2c0.1,0,0.2,0,0.2,0c0.1,0.1,0.2,0.2,0.3,0.3
			c0.2,0.3,0.1,0.5,0,0.6C49.6,130.3,49.5,130.3,49.5,130.3z M52.6,129.5l0.3,0.4l-0.1,0.2l-0.3-0.4L52.6,129.5z M52,130.5
			c-0.1,0-0.2-0.2-0.1-0.3c0,0,0,0,0,0c0,0,0-0.1,0-0.1c-0.1-0.1-0.1-0.2,0-0.3c0.1-0.2,0.2-0.2,0.4-0.2c0,0,0,0,0,0l0.4,0.5
			C52.5,130.3,52.3,130.6,52,130.5z"/>
		<path d="M51.8,126.6c-0.1,0-0.1,0-0.1,0.1l-0.2,0.4c0,0,0,0.1,0,0.1l0.6,0.6c0,0,0.1,0,0.1,0l0.5-0.1c0.1,0,0.1-0.1,0.1-0.1
			c0-0.1-0.1-0.1-0.1-0.1c0,0,0,0,0,0l-0.5,0.1l-0.5-0.5l0.1-0.3C51.8,126.7,51.8,126.6,51.8,126.6z"/>
		<path d="M51.5,128.8l-1-1c0,0-0.1,0-0.2,0s0,0.1,0,0.2c0,0,0,0,0,0l1,1c0,0,0.1,0,0.2,0C51.6,128.9,51.6,128.8,51.5,128.8z"/>
		<path d="M50.9,127.7l0.6,0.6c0,0,0.1,0,0.1,0l0.4-0.3c0,0,0.1-0.1,0-0.2c0,0,0,0,0,0l-0.6-0.6c0,0-0.1,0-0.1,0l-0.4,0.3
			C50.8,127.6,50.8,127.7,50.9,127.7C50.8,127.7,50.8,127.7,50.9,127.7z M51.3,127.5l0.4,0.5l-0.2,0.2l-0.4-0.5L51.3,127.5z"/>
	</g>
	<g id="astronauta-interno-3_2_">
		<path d="M73.1,122.1c0-0.2-0.1-0.5-0.4-0.7c-0.3-0.2-0.5-0.3-0.8-0.2c-0.2,0.1-0.4,0.2-0.5,0.3c-0.2,0.2-0.4,0.6,0.1,1.2
			c0.1,0.1,0.2,0.2,0.4,0.3c0.3,0.1,0.5,0.1,0.8-0.2C72.9,122.6,73.1,122.3,73.1,122.1z M72.5,122.6c-0.3,0.3-0.5,0.2-0.9-0.1
			c-0.3-0.3-0.4-0.6-0.1-0.9c0.1-0.1,0.2-0.2,0.4-0.3c0.1,0,0.2,0,0.3,0c0.1,0,0.2,0.1,0.2,0.2c0.2,0.2,0.3,0.4,0.3,0.6
			C72.8,122.3,72.7,122.4,72.5,122.6z"/>
		<path d="M73.2,122.7l-0.5,0.5c0,0,0,0.1,0,0.2c0,0,0.1,0,0.2,0l0.5-0.5c0,0,0-0.1,0-0.2C73.3,122.7,73.3,122.7,73.2,122.7
			L73.2,122.7z"/>
		<path d="M70.9,121.4c0,0,0.1,0,0.2,0c0,0,0,0,0,0l0.5-0.5c0,0,0-0.1,0-0.2c0,0-0.1,0-0.2,0l0,0l-0.5,0.5
			C70.8,121.3,70.8,121.4,70.9,121.4z"/>
		<path d="M72.7,124.4l-0.5-1.1c0.2,0,0.3-0.1,0.5-0.2c0,0,0,0,0,0l0.5-0.5c0.2-0.2,0.3-0.6,0.2-0.9c-0.1-0.4-0.4-0.8-0.7-1
			c-0.8-0.3-1.2,0.1-1.2,0.1l-0.5,0.5c0,0-0.5,0.6,0.1,1.4c0.1,0.2,0.3,0.3,0.5,0.4c0.1,0.1,0.2,0.1,0.4,0.1c0,0,0,0,0,0l0.5,1.1
			c0.1,0.2,0.1,0.4,0,0.6l-0.1,0.2l-0.3,0.3l-0.3-0.4l0.3-0.3c0,0,0-0.1,0-0.1l-0.2-0.6c0-0.1-0.1-0.1-0.1-0.1c0,0,0,0,0,0l-1.2,0.9
			l-0.8,0.4l-0.5-0.5l0.5-0.2c0.1,0,0.1-0.1,0.1-0.1c0,0,0,0,0,0l-0.3-0.2c0,0,0,0-0.1,0l-0.8,0c0,0,0,0-0.1,0l-0.2,0.1L68,124
			l0.1-0.1c0.1-0.1,0.2-0.1,0.3-0.1l0.7,0c0,0,0.1,0,0.1,0l0.9-0.9c0,0,0-0.1,0-0.2c0,0,0,0-0.1,0l-0.7,0c-0.1,0-0.2-0.1-0.3-0.2
			l-0.2-0.4l0.4-0.1l0.1,0.2c0,0,0.1,0.1,0.1,0.1l0.9-0.1c0.1,0,0.1-0.1,0.1-0.1c0-0.1-0.1-0.1-0.1-0.1l-0.8,0.1l-0.2-0.6
			c0.1-0.1,0.1-0.3,0.1-0.5c0-0.1-0.1-0.2-0.2-0.2c0.1-0.2-0.1-0.4-0.2-0.5c-0.4-0.2-0.5,0-0.7,0.5c-0.2,0.3-0.1,0.7,0.1,0.9
			l0.4,0.9c0.1,0.2,0.3,0.3,0.5,0.3l0.4,0l-0.7,0.7l-0.7,0c-0.2,0-0.3,0-0.5,0.1l-0.8,0.5c-0.1-0.1-0.3-0.2-0.5-0.1
			c-0.2,0-0.4,0.1-0.5,0.3c-0.2,0.4,0.7,1,0.8,1.1c0.1,0,0.3,0,0.4-0.1l0,0l1.2-0.8l0.8,0l0.1,0.1l-0.4,0.2c0,0,0,0,0,0l-0.5,0.4
			c-0.1-0.1-0.3-0.2-0.5-0.1c-0.2,0-0.4,0.1-0.5,0.3c-0.2,0.4,0.7,1,0.8,1.1c0.1,0,0.3,0,0.4-0.1c0,0,0,0,0,0l0.9-0.7l0.9-0.4
			c0,0,0,0,0,0l1.1-0.8l0.1,0.4l-0.6,0.6c-0.3-0.1-0.5,0-0.6,0.3c-0.1,0.1,0,0.3,0,0.4c-0.1,0.2,0,0.4,0.2,0.5
			c0.5,0.2,0.9-0.4,0.9-0.5l0.7-0.8c0,0,0,0,0,0l0.1-0.2C72.8,124.9,72.8,124.7,72.7,124.4z M71.3,122.7c-0.5-0.7-0.2-1.1-0.2-1.1
			l0.5-0.5c0,0,0.4-0.4,1-0.1c0.3,0.1,0.5,0.5,0.6,0.8c0.1,0.2,0,0.5-0.2,0.7l-0.5,0.5C72.2,123.3,71.6,123.1,71.3,122.7z
			 M68.6,120.9c0.2-0.5,0.2-0.5,0.4-0.4c0.1,0,0.2,0.2,0.1,0.3c0,0,0,0,0,0c0,0.1,0,0.1,0.1,0.1c0.1,0,0.1,0.1,0.1,0.2
			c0,0.1,0,0.2-0.1,0.3l-0.6,0.1C68.5,121.3,68.4,121.1,68.6,120.9z M69.2,121.6l0.1,0.2l-0.4,0.1l-0.1-0.2L69.2,121.6z M67.3,125.2
			c-0.1,0.1-0.1,0.1-0.2,0.1c-0.2-0.1-0.3-0.2-0.5-0.4c-0.2-0.2-0.3-0.4-0.2-0.4c0.1-0.1,0.2-0.2,0.3-0.2c0.1,0,0.2,0,0.2,0
			c0.1,0.1,0.2,0.2,0.3,0.3C67.5,124.9,67.4,125.1,67.3,125.2z M67.5,124.5c0,0-0.1-0.1-0.1-0.1l0.4-0.2l0.4,0.5l-0.6,0.4
			C67.6,124.8,67.6,124.6,67.5,124.5z M69,125.2l0.4,0.5l-0.5,0.4c0-0.2-0.1-0.3-0.2-0.5c0,0-0.1-0.1-0.1-0.1L69,125.2z M68.5,126.3
			c-0.2-0.1-0.3-0.2-0.5-0.4c-0.2-0.2-0.3-0.4-0.2-0.4c0.1-0.1,0.2-0.2,0.3-0.2c0.1,0,0.2,0,0.2,0c0.1,0.1,0.2,0.2,0.3,0.3
			c0.2,0.3,0.1,0.5,0,0.6C68.6,126.3,68.5,126.3,68.5,126.3z M71.6,125.5l0.3,0.4l-0.1,0.2l-0.3-0.4L71.6,125.5z M71,126.5
			c-0.1,0-0.2-0.2-0.1-0.3c0,0,0,0,0,0c0,0,0-0.1,0-0.1c-0.1-0.1-0.1-0.2,0-0.3c0.1-0.2,0.2-0.2,0.4-0.2c0,0,0,0,0,0l0.4,0.5
			C71.5,126.3,71.3,126.6,71,126.5z"/>
		<path d="M70.8,122.6c-0.1,0-0.1,0-0.1,0.1l-0.2,0.4c0,0,0,0.1,0,0.1l0.6,0.6c0,0,0.1,0,0.1,0l0.5-0.1c0.1,0,0.1-0.1,0.1-0.1
			c0-0.1-0.1-0.1-0.1-0.1c0,0,0,0,0,0l-0.5,0.1l-0.5-0.5l0.1-0.3C70.8,122.7,70.8,122.6,70.8,122.6z"/>
		<path d="M70.5,124.8l-1-1c0,0-0.1,0-0.2,0s0,0.1,0,0.2c0,0,0,0,0,0l1,1c0,0,0.1,0,0.2,0C70.6,124.9,70.6,124.8,70.5,124.8z"/>
		<path d="M69.9,123.7l0.6,0.6c0,0,0.1,0,0.1,0l0.4-0.3c0,0,0.1-0.1,0-0.2c0,0,0,0,0,0l-0.6-0.6c0,0-0.1,0-0.1,0l-0.4,0.3
			C69.8,123.6,69.8,123.7,69.9,123.7C69.8,123.7,69.8,123.7,69.9,123.7z M70.3,123.5l0.4,0.5l-0.2,0.2l-0.4-0.5L70.3,123.5z"/>
	</g>
	<g id="astronauta-interno-2_1_">
		<path d="M50.3,119.7c-0.2,0.1-0.3,0.3-0.4,0.7c-0.1,0.3,0,0.6,0.1,0.8c0.2,0.1,0.3,0.2,0.5,0.3c0.3,0.1,0.7,0.1,1-0.7
			c0.1-0.2,0.1-0.3,0.1-0.5c0-0.3-0.2-0.5-0.5-0.6C50.7,119.5,50.5,119.5,50.3,119.7z M51,119.9c0.4,0.1,0.5,0.4,0.3,0.8
			c-0.1,0.4-0.4,0.6-0.7,0.5c-0.2,0-0.3-0.1-0.4-0.2c-0.1-0.1-0.1-0.2-0.1-0.3c0-0.1,0-0.2,0-0.3c0.1-0.3,0.2-0.5,0.3-0.6
			C50.5,119.8,50.7,119.8,51,119.9z"/>
		<path d="M50.7,119.2l0.7,0.2c0.1,0,0.1,0,0.1-0.1c0-0.1,0-0.1-0.1-0.1l-0.7-0.2c-0.1,0-0.1,0-0.1,0.1S50.7,119.2,50.7,119.2
			L50.7,119.2z"/>
		<path d="M50.7,121.9c0-0.1,0-0.1-0.1-0.1c0,0,0,0,0,0l-0.7-0.2c-0.1,0-0.1,0-0.1,0.1s0,0.1,0.1,0.1l0,0l0.7,0.2
			C50.7,122,50.7,121.9,50.7,121.9z"/>
		<path d="M52.5,118.9l-0.7,0.9c-0.1-0.1-0.2-0.3-0.4-0.4c0,0,0,0,0,0l-0.7-0.2c-0.3-0.1-0.6,0-0.9,0.2c-0.3,0.3-0.5,0.7-0.5,1.1
			c0.1,0.8,0.7,1,0.7,1l0.7,0.2c0,0,0.8,0.2,1.2-0.8c0.1-0.2,0.1-0.4,0.1-0.6c0-0.1,0-0.2-0.1-0.4c0,0,0,0,0,0l0.8-1
			c0.1-0.2,0.3-0.3,0.5-0.3l0.2,0l0.4,0.1l-0.2,0.5l-0.4-0.1c0,0-0.1,0-0.1,0l-0.4,0.5c0,0,0,0.1,0,0.2c0,0,0,0,0,0l1.3,0.7l0.7,0.5
			l-0.2,0.6l-0.4-0.4c0,0-0.1,0-0.2,0c0,0,0,0,0,0l-0.1,0.3c0,0,0,0.1,0,0.1l0.4,0.7c0,0,0,0,0,0l0.2,0.1l-0.2,0.6l-0.1-0.1
			c-0.1-0.1-0.2-0.1-0.2-0.2l-0.3-0.7c0,0,0-0.1-0.1-0.1l-1.2-0.4c-0.1,0-0.1,0-0.1,0.1c0,0,0,0.1,0,0.1l0.3,0.6
			c0.1,0.1,0,0.2,0,0.3l-0.3,0.4l-0.3-0.3l0.1-0.2c0,0,0-0.1,0-0.1l-0.5-0.7c0-0.1-0.1-0.1-0.2,0c-0.1,0-0.1,0.1,0,0.2l0.4,0.7
			l-0.4,0.5c-0.2,0-0.3,0-0.4,0.1c-0.1,0.1-0.1,0.2-0.1,0.3c-0.2,0.1-0.3,0.2-0.3,0.4c0,0.4,0.3,0.4,0.8,0.4c0.3,0,0.6-0.2,0.7-0.5
			l0.6-0.8c0.1-0.2,0.1-0.4,0.1-0.6l-0.2-0.4l0.9,0.3l0.3,0.6c0.1,0.1,0.2,0.3,0.3,0.3l0.8,0.4c0,0.2,0,0.4,0.1,0.5
			c0.1,0.2,0.3,0.3,0.5,0.3c0.5,0,0.6-1.1,0.6-1.2c0-0.1-0.1-0.3-0.3-0.3l0,0l-1.2-0.7l-0.3-0.7l0-0.1l0.3,0.3c0,0,0,0,0,0l0.6,0.3
			c0,0.2,0,0.4,0.1,0.5c0.1,0.2,0.3,0.3,0.5,0.3c0.5,0,0.6-1.1,0.6-1.2c0-0.1-0.1-0.3-0.3-0.3c0,0,0,0,0,0l-1-0.5l-0.8-0.6
			c0,0,0,0,0,0l-1.2-0.6l0.3-0.3l0.8,0.2c0,0.3,0.3,0.5,0.6,0.4c0.2,0,0.3-0.1,0.4-0.2c0.2,0,0.4-0.2,0.3-0.5c0-0.5-0.8-0.6-0.9-0.6
			l-1-0.3c0,0,0,0,0,0l-0.3,0C52.9,118.5,52.7,118.7,52.5,118.9z M51.7,120.9c-0.3,0.8-0.9,0.7-0.9,0.7l-0.7-0.2
			c0,0-0.5-0.2-0.5-0.8c0-0.3,0.2-0.7,0.4-0.9c0.2-0.2,0.4-0.2,0.7-0.2l0.6,0.2C51.7,119.9,51.9,120.4,51.7,120.9z M51.3,124.2
			c-0.5,0-0.5,0-0.6-0.2c0-0.1,0.1-0.2,0.2-0.2c0,0,0,0,0,0c0.1,0,0.1-0.1,0.1-0.1c0-0.1,0-0.1,0.1-0.2c0.1-0.1,0.2-0.1,0.3-0.1
			l0.4,0.4C51.8,124.1,51.6,124.2,51.3,124.2z M51.6,123.3l0.2-0.2l0.3,0.3l-0.1,0.2L51.6,123.3z M55.7,123.3c0.1,0,0.1,0.1,0.2,0.1
			c0,0.2,0,0.4-0.1,0.6c-0.1,0.3-0.2,0.4-0.3,0.4c-0.1,0-0.2-0.1-0.3-0.2c0-0.1-0.1-0.1-0.1-0.2c0-0.1,0-0.3,0.1-0.4
			C55.4,123.2,55.6,123.2,55.7,123.3z M55,123.5c0,0,0,0.1-0.1,0.1l-0.4-0.2l0.2-0.6l0.6,0.3C55.2,123.2,55.1,123.3,55,123.5z
			 M54.9,121.8l0.2-0.6l0.6,0.3c-0.2,0.1-0.3,0.2-0.4,0.4c0,0,0,0.1-0.1,0.1L54.9,121.8z M56.2,121.7c0,0.2,0,0.4-0.1,0.6
			c-0.1,0.3-0.2,0.4-0.3,0.4c-0.1,0-0.2-0.1-0.3-0.2c0-0.1-0.1-0.1-0.1-0.2c0-0.1,0-0.3,0.1-0.4c0.2-0.3,0.4-0.3,0.5-0.3
			C56.1,121.6,56.2,121.7,56.2,121.7z M53.9,119.4l0.2-0.5l0.2,0.1l-0.2,0.5L53.9,119.4z M55.1,119.4c0,0.1-0.1,0.2-0.2,0.2
			c0,0,0,0,0,0c0,0-0.1,0-0.1,0.1c0,0.1-0.1,0.2-0.2,0.2c-0.2,0-0.3-0.1-0.3-0.3c0,0,0,0,0,0l0.2-0.6
			C54.7,119,55.1,119.1,55.1,119.4z"/>
		<path d="M51.8,121.4c0,0.1,0.1,0.1,0.1,0.1l0.4,0c0,0,0.1,0,0.1-0.1l0.3-0.8c0,0,0-0.1,0-0.1l-0.4-0.4c0,0-0.1-0.1-0.2,0
			c0,0-0.1,0.1,0,0.2c0,0,0,0,0,0l0.3,0.4l-0.2,0.7l-0.4,0C51.8,121.3,51.8,121.4,51.8,121.4z"/>
		<path d="M53.8,120.6l-0.5,1.3c0,0.1,0,0.1,0.1,0.1c0.1,0,0.1,0,0.1-0.1c0,0,0,0,0,0l0.5-1.3c0-0.1,0-0.1-0.1-0.1
			C53.9,120.5,53.8,120.6,53.8,120.6z"/>
		<path d="M53.2,121.7l0.3-0.8c0-0.1,0-0.1-0.1-0.1l-0.4-0.2c-0.1,0-0.1,0-0.1,0.1c0,0,0,0,0,0l-0.3,0.8c0,0.1,0,0.1,0.1,0.1
			l0.4,0.2C53.1,121.8,53.2,121.8,53.2,121.7C53.2,121.7,53.2,121.7,53.2,121.7z M52.8,121.4l0.2-0.6l0.2,0.1l-0.2,0.6L52.8,121.4z"
			/>
	</g>
	<g id="astronauta-interno-1_1_">
		<path d="M44.5,121.3c0,0.3,0.1,0.6,0.3,0.8c0.1,0.1,0.3,0.1,0.5,0.1c0.8,0.1,1-0.3,1-0.6c0.1-0.2,0-0.4,0-0.6
			c-0.1-0.2-0.3-0.4-0.6-0.5c-0.4-0.1-0.6,0-0.8,0.1C44.7,120.8,44.6,121,44.5,121.3z M45,120.8c0.1-0.1,0.3-0.1,0.6,0
			c0.1,0,0.2,0.1,0.3,0.1c0.1,0.1,0.2,0.1,0.2,0.2c0,0.2,0,0.3,0,0.5c-0.1,0.3-0.3,0.5-0.8,0.4c-0.5-0.1-0.6-0.3-0.6-0.6
			C44.8,121.1,44.9,120.9,45,120.8z"/>
		<path d="M44.3,120.9c0-0.1,0-0.1-0.1-0.1c-0.1,0-0.1,0-0.1,0.1l-0.1,0.7c0,0.1,0,0.1,0.1,0.1s0.1,0,0.1-0.1L44.3,120.9L44.3,120.9
			z"/>
		<path d="M46.8,121.9l0.1-0.7l0,0c0-0.1,0-0.1-0.1-0.1s-0.1,0-0.1,0.1l-0.1,0.7c0,0,0,0,0,0c0,0.1,0,0.1,0.1,0.1
			C46.8,122,46.8,122,46.8,121.9z"/>
		<path d="M42.6,122.7l-0.1,0.2c0,0,0,0,0,0l-0.2,1c0,0.1-0.3,0.8,0.1,1.1c0.2,0.1,0.4,0.1,0.6-0.1c0.2,0,0.3-0.1,0.4-0.2
			c0.1-0.2,0.1-0.5-0.1-0.7l0.1-0.8l0.4-0.1l0,1.4c0,0,0,0,0,0l0.2,1l0,1.1c0,0,0,0,0,0c0,0.1,0,0.3,0.1,0.4c0.1,0.1,1.1,0.4,1.4,0
			c0.1-0.2,0.1-0.4,0-0.6c-0.1-0.2-0.2-0.3-0.4-0.3l0-0.7c0,0,0,0,0,0l-0.1-0.4l0.1,0l0.5,0.6l0.1,1.4l0,0c0,0.1,0,0.3,0.1,0.4
			c0.1,0.1,1.1,0.4,1.4,0c0.1-0.2,0.1-0.4,0-0.6c-0.1-0.2-0.2-0.3-0.4-0.3l-0.1-0.9c0-0.2-0.1-0.3-0.2-0.4l-0.4-0.5l0.2-1l0.3,0.3
			c0.1,0.2,0.3,0.2,0.5,0.2l1-0.2c0.3,0.1,0.7-0.1,0.8-0.4c0.3-0.5,0.4-0.7,0-0.9c-0.2-0.1-0.4-0.1-0.5,0.1c-0.1,0-0.2,0-0.3,0
			c-0.1,0.1-0.3,0.2-0.3,0.3l-0.6,0.2l-0.4-0.7c0-0.1-0.1-0.1-0.1,0c-0.1,0-0.1,0.1,0,0.1l0.4,0.8c0,0,0.1,0.1,0.1,0l0.2-0.1
			l0.2,0.4l-0.4,0.1c-0.1,0-0.2,0-0.3-0.1l-0.4-0.5c0,0,0,0-0.1,0c-0.1,0-0.1,0-0.1,0.1l-0.2,1.3c0,0,0,0.1,0,0.1l0.5,0.6
			c0.1,0.1,0.1,0.2,0.1,0.3l0,0.2l-0.6,0l0-0.2c0,0,0,0,0-0.1l-0.5-0.7c0,0,0,0-0.1,0l-0.3-0.1c0,0,0,0,0,0c-0.1,0-0.1,0.1-0.1,0.1
			l0.1,0.5l-0.7-0.1l-0.2-0.9l0-1.5c0,0,0,0,0,0c0-0.1-0.1-0.1-0.1-0.1l-0.6,0.2c0,0-0.1,0-0.1,0.1l-0.1,0.4l-0.5-0.1l0.1-0.4
			l0.1-0.2c0.1-0.2,0.3-0.3,0.5-0.4l1.2-0.3c0,0,0,0,0,0c0.1,0.1,0.2,0.2,0.3,0.2c0.2,0.1,0.4,0.2,0.6,0.2c1.1,0.1,1.2-0.7,1.2-0.7
			l0.1-0.7c0,0,0.1-0.7-0.6-1.1c-0.3-0.2-0.8-0.2-1.2,0c-0.3,0.1-0.5,0.4-0.6,0.7l-0.1,0.7c0,0,0,0,0,0c0,0.2,0.1,0.3,0.2,0.5
			l-1.1,0.2C43,122.3,42.7,122.5,42.6,122.7z M44.4,121.5l0.1-0.7c0.1-0.2,0.2-0.4,0.4-0.5c0.3-0.1,0.7-0.1,1,0
			c0.6,0.3,0.5,0.8,0.5,0.9l-0.1,0.7c0,0-0.1,0.6-1,0.5C44.9,122.4,44.5,122,44.4,121.5z M48,123.9l-0.2-0.6c0-0.1,0.1-0.2,0.2-0.2
			c0.1,0,0.1,0,0.2,0c0.1,0,0.1,0,0.1,0c0,0,0,0,0,0c0.1-0.1,0.2-0.1,0.3-0.1c0.2,0.1,0.2,0.1-0.1,0.6
			C48.4,123.8,48.2,123.9,48,123.9z M47.8,123.9l-0.2,0.1l-0.2-0.4l0.2-0.1L47.8,123.9z M46.3,126.8c0.1,0,0.3,0,0.4,0.1
			c0.1,0,0.1,0.1,0.2,0.2c0.1,0.1,0.1,0.2,0,0.3c0,0.1-0.2,0.1-0.5,0.1c-0.2,0-0.4-0.1-0.6-0.2c0,0,0-0.1,0-0.2
			C45.8,127,45.9,126.8,46.3,126.8z M45.7,126.7l0-0.7l0.6,0l0,0.5c0,0-0.1,0-0.1,0C46.1,126.5,45.9,126.6,45.7,126.7z M44.8,126.1
			c0,0-0.1,0-0.1,0c-0.2,0-0.4,0.1-0.5,0.2l0-0.6l0.7,0.1L44.8,126.1z M44.1,126.6c0-0.1,0.1-0.3,0.5-0.3c0.1,0,0.3,0,0.4,0.1
			c0.1,0,0.1,0.1,0.2,0.2c0.1,0.1,0.1,0.2,0,0.3c0,0.1-0.2,0.1-0.5,0.1c-0.2,0-0.4-0.1-0.6-0.2C44.1,126.8,44.1,126.7,44.1,126.6z
			 M43,124l-0.5,0l0-0.2l0.5,0.1L43,124z M42.4,124.2l0.6,0c0,0,0,0,0,0c0.1,0.1,0.2,0.3,0.1,0.4c-0.1,0.1-0.2,0.1-0.3,0.1
			c0,0-0.1,0-0.1,0.1c0,0,0,0,0,0c-0.1,0.1-0.2,0.1-0.3,0.1C42.3,124.8,42.4,124.3,42.4,124.2z"/>
		<path d="M45.7,122.8l-0.2,0.3l-0.7-0.1l-0.2-0.4c0,0,0,0,0,0c0-0.1-0.1-0.1-0.1-0.1s-0.1,0.1-0.1,0.1l0.2,0.5c0,0,0,0.1,0.1,0.1
			l0.8,0.1c0,0,0.1,0,0.1-0.1l0.2-0.4c0-0.1,0-0.1,0-0.1C45.8,122.8,45.7,122.8,45.7,122.8z"/>
		<path d="M44.1,124.3c0,0.1,0,0.1,0.1,0.1l1.4,0.2c0,0,0,0,0,0c0.1,0,0.1,0,0.1-0.1c0-0.1,0-0.1-0.1-0.1l-1.4-0.2
			C44.1,124.2,44.1,124.3,44.1,124.3z"/>
		<path d="M45.5,124.2c0.1,0,0.1,0,0.1-0.1l0-0.5c0-0.1,0-0.1-0.1-0.1l-0.8-0.1c0,0,0,0,0,0c-0.1,0-0.1,0-0.1,0.1l0,0.5
			c0,0.1,0,0.1,0.1,0.1L45.5,124.2C45.5,124.2,45.5,124.2,45.5,124.2z M45.4,124l-0.6-0.1l0-0.3l0.6,0.1L45.4,124z"/>
	</g>
	<polygon id="torre-salvamento" class="st0" points="54,97 52,94 52,52 50,50 48,52 48,94 46,97 45,117 55,117 	"/>
	<polygon id="modulo-servicio" class="st0" points="34,132 34,162 35,165 45,165 43,178 57,178 55,165 65,165 66,162 66,132 	"/>
	<polygon id="propulsor-tercera-etapa" class="st0" points="75,219 25,219 25,308 47,314 42,323 42,333 58,333 58,323 53,314 
		75,308 	"/>
	<polygon id="cono-empalme" class="st0" points="75,308 25,308 12,345 88,345 	"/>
	<polygon id="segunda-etapa" class="st0" points="11,470 20,475 27,475 21.8,480 21,490 38,490 37,480 32,475 47,475 42,480 41,490 
		59,490 58.4,480 53,475 68,475 63,480 62,490 79,490 78,480 73,475 80,475 89,470 88,345 12,345 	"/>
	<polygon id="anillo-empalme" class="st0" points="11,470 10,530 90,530 89,470 	"/>
	<polygon id="primera-etapa" class="st0" points="90,530 10,530 10,715 5,720 5,732 12,735 12,740 1,750 1,760 8,760 5,770 34,770 
		33,775 67,775 66,770 95,770 92,760 99,760 99,750 88,740 88,735 95,732 95,720 90,715 	"/>
	<polygon id="garage-modulo-alunizaje" class="st0" points="25,219 34,162 66,162 75,219 	"/>
</g>
<g id="modulo-alunizaje">
	<polygon id="modulo-mando_cerrado" class="st0" points="55,117 45,117 34,132 66,132 	"/>
	<polygon id="abierto-derecha_2_" class="st0" points="99,218 94,163 79,162 74,215 	"/>
	<polygon id="abierto-izquierda_2_" class="st0" points="1,218 26,215 21,162 6,163 	"/>
	<polygon id="modulo-lunar_2_" class="st0" points="68,210 63,198 60,197 59,191 57,190 57,186 55,182 45,182 43,186 43,190 41,191 
		40,197 37,198 32,210 29,210 29,212 36,212 36,210 34,210 38,200 39,206 46,208 45,210 48,210 48,214 46,214 46,216 53,216 53,214 
		51,214 51,210 54.1,210 53,208 61,206 62,200 66,210 64,210 64,212 71,212 71,210 	"/>
</g>
</svg>
